<svg xmlns="http://www.w3.org/2000/svg" viewBox="0 0 339.35 299.52"><defs><style>.cls-1{fill:#3d4b60;}.cls-2{fill:#47477f;}.cls-3{fill:#3b3868;}.cls-4{fill:#42c3fc;}.cls-5{fill:#118ecc;}.cls-6{fill:#e9efff;}.cls-7{fill:#bec8f7;}.cls-8{fill:#a2b6f4;}.cls-9{fill:#1379b7;}.cls-10{fill:none;}.cls-11{fill:#2d2d59;}.cls-12{fill:#1aa9e8;}.cls-13{fill:#1084b2;}.cls-14{opacity:0.7;}.cls-15{fill:#8ae1ff;}.cls-16{fill:#b8f0ff;}.cls-17{fill:#babecc;}.cls-18{fill:#fff;}.cls-19{fill:#e2e3e8;}.cls-20{fill:#e2e8f7;}.cls-21{fill:#cfd4e8;}.cls-22{fill:#0078c8;}.cls-23{fill:#b2b8cc;}.cls-24{fill:#ff4155;}.cls-25{fill:#d82a43;}</style></defs><g id="Layer_2" data-name="Layer 2"><g id="Layer_1-2" data-name="Layer 1"><path class="cls-1" d="M203.15,280.37v16.78a176.06,176.06,0,0,0,27.24-6.85A172.23,172.23,0,0,0,279.17,264h-76Z"/><path class="cls-1" d="M3.35,131.79c-7.91,25-1.05,54.72,12.57,79.17V108.12A83.88,83.88,0,0,0,3.35,131.79Z"/><path class="cls-1" d="M218.76,8.11c-28.91-10.85-61.94-10.89-89.1.37a123,123,0,0,0-23.74,13.34H245.36A139,139,0,0,0,218.76,8.11Z"/><path class="cls-1" d="M339.18,152.94a91.85,91.85,0,0,0-5.3-24.86v62A97.24,97.24,0,0,0,339.18,152.94Z"/><path class="cls-1" d="M89.75,263.86H65.82c3.63,2.49,7.31,4.87,11,7.1,22,13.3,45.23,22.28,69.8,26.25V264Z"/><path class="cls-2" d="M314.6,21.82H87.73A19.28,19.28,0,0,0,70.85,37.26H309.93a8.5,8.5,0,0,1,8.5,8.5V213.17h5.09a134.63,134.63,0,0,0,10.36-23.11v-149A19.28,19.28,0,0,0,314.6,21.82Z"/><path class="cls-3" d="M309.93,37.26H70.85A19.08,19.08,0,0,0,70.48,41V50.3H305.4V213.17h13V45.76A8.5,8.5,0,0,0,309.93,37.26Z"/><polygon class="cls-4" points="293.37 64.95 70.48 64.95 70.48 213.17 305.4 213.17 305.4 79.4 305.4 64.95 293.37 64.95"/><path class="cls-5" d="M70.6,52.3l2.09-2H70.48v2Z"/><path class="cls-5" d="M305.4,65V50.3H279.65c4.68,4.69,9.24,9.6,13.72,14.65Z"/><path class="cls-5" d="M70.6,52.3a3,3,0,0,1,.43,0A5.37,5.37,0,1,1,71,63a4.89,4.89,0,0,1-.55-.05v2H293.37c-4.48-5.05-9-10-13.72-14.65h-207Zm15.11,0a5.37,5.37,0,1,1-5.36,5.37A5.36,5.36,0,0,1,85.71,52.26Z"/><path class="cls-6" d="M304.41,240.19a163.29,163.29,0,0,0,19.11-27h-253v31.42a19.27,19.27,0,0,0,19.27,19.27l56.9.1H279.17A172.92,172.92,0,0,0,304.41,240.19ZM174.9,249.9a11.33,11.33,0,1,1,11.33-11.33A11.34,11.34,0,0,1,174.9,249.9Z"/><circle class="cls-7" cx="174.9" cy="238.57" r="11.33"/><path class="cls-8" d="M166.73,299.34v-1.88a17.1,17.1,0,0,1,17.1-17.09h19.32V264h-56.5v33.25c1.22.2,2.45.4,3.68.57C155.73,298.56,161.21,299.08,166.73,299.34Z"/><path class="cls-7" d="M183.83,280.37a17.1,17.1,0,0,0-17.1,17.09v1.88a172,172,0,0,0,36.42-2.19V280.37Z"/><circle class="cls-9" cx="85.71" cy="57.63" r="5.37"/><path class="cls-9" d="M70.48,52.42l.12-.12h-.12Z"/><path class="cls-9" d="M70.48,62.94A4.89,4.89,0,0,0,71,63a5.37,5.37,0,1,0,0-10.73,3,3,0,0,0-.43,0l-.12.12Z"/><path class="cls-10" d="M35.19,21.82H87.73a19.38,19.38,0,0,1,2-.11H35.19A19.27,19.27,0,0,0,15.92,41v.11A19.27,19.27,0,0,1,35.19,21.82Z"/><path class="cls-3" d="M15.92,211v2.21h1.26C16.75,212.44,16.33,211.7,15.92,211Z"/><path class="cls-3" d="M35.19,21.82A19.27,19.27,0,0,0,15.92,41.09V211c.41.74.83,1.48,1.26,2.21H31.36V45.76a8.51,8.51,0,0,1,8.5-8.5h31A19.28,19.28,0,0,1,87.73,21.82Z"/><path class="cls-11" d="M39.86,37.26a8.51,8.51,0,0,0-8.5,8.5V213.17h13V50.3H70.48V41a19.08,19.08,0,0,1,.37-3.72Z"/><polygon class="cls-12" points="57.38 64.95 44.4 64.95 44.4 77.26 44.4 213.17 70.48 213.17 70.48 64.95 57.38 64.95"/><path class="cls-13" d="M65.72,57a5.35,5.35,0,0,1,4.76-4.68v-2H44.4V65h13l1.27-1.21C61,61.5,63.38,59.24,65.72,57Zm-9.37,6a5.37,5.37,0,1,1,5.36-5.36A5.36,5.36,0,0,1,56.35,63Z"/><path class="cls-13" d="M65.66,57.63c0-.22,0-.43.06-.64-2.34,2.25-4.7,4.51-7.07,6.75L57.38,65h13.1v-2A5.36,5.36,0,0,1,65.66,57.63Z"/><path class="cls-7" d="M70.48,244.59V213.17H15.92v31.42a19.27,19.27,0,0,0,19.27,19.27H89.75A19.27,19.27,0,0,1,70.48,244.59Z"/><path class="cls-9" d="M70.48,52.31A5.35,5.35,0,0,0,65.72,57l4.76-4.57Z"/><path class="cls-9" d="M65.72,57c0,.21-.06.42-.06.64a5.36,5.36,0,0,0,4.82,5.31V52.42Z"/><circle class="cls-9" cx="56.35" cy="57.63" r="5.37" transform="translate(-8.5 9.77) rotate(-9.22)"/><g class="cls-14"><rect class="cls-15" x="58.85" y="79.86" width="52.85" height="12.26" rx="6.13"/><rect class="cls-16" x="58.85" y="105.08" width="66.82" height="12.26" rx="6.13"/><rect class="cls-15" x="121.4" y="79.86" width="66.82" height="12.26" rx="6.13"/><rect class="cls-16" x="226.29" y="79.86" width="24.91" height="12.26" rx="6.13"/><rect class="cls-15" x="262.64" y="79.86" width="17.92" height="12.26" rx="6.13"/><rect class="cls-15" x="245.18" y="105.08" width="52.85" height="12.26" rx="6.13"/><rect class="cls-16" x="215.35" y="105.08" width="17.92" height="12.26" rx="6.13"/><rect class="cls-16" x="58.85" y="130.63" width="24.91" height="12.26" rx="6.13"/><rect class="cls-15" x="97.62" y="130.63" width="17.92" height="12.26" rx="6.13"/><rect class="cls-16" x="192.88" y="130.63" width="66.82" height="12.26" rx="6.13"/><rect class="cls-15" x="268.85" y="130.63" width="17.92" height="12.26" rx="6.13"/><rect class="cls-15" x="218.75" y="153.22" width="52.85" height="12.26" rx="6.13"/><rect class="cls-16" x="91.33" y="153.22" width="24.91" height="12.26" rx="6.13"/><rect class="cls-15" x="58.85" y="153.22" width="24.91" height="12.26" rx="6.13"/><rect class="cls-15" x="58.82" y="178.44" width="52.85" height="12.26" rx="6.13"/><rect class="cls-15" x="121.36" y="178.44" width="66.82" height="12.26" rx="6.13"/><rect class="cls-16" x="226.26" y="178.44" width="24.91" height="12.26" rx="6.13"/><rect class="cls-15" x="262.61" y="178.44" width="17.92" height="12.26" rx="6.13"/></g><path class="cls-17" d="M123.5,129l48.92-45.37a3.64,3.64,0,0,1,5,0L226.29,129l-50.72,49.72Z"/><rect class="cls-18" x="129.5" y="75.7" width="90.95" height="96.56"/><rect class="cls-19" x="137.06" y="82.61" width="75.83" height="3.48" rx="1.74"/><rect class="cls-19" x="137.06" y="98.43" width="75.83" height="3.48" rx="1.74"/><rect class="cls-19" x="137.06" y="113.7" width="75.83" height="3.48" rx="1.74"/><rect class="cls-19" x="137.06" y="128.89" width="75.83" height="3.48" rx="1.74"/><polygon class="cls-20" points="123.5 128.97 175.57 178.68 226.29 128.97 226.29 202.76 123.5 202.76 123.5 128.97"/><path class="cls-21" d="M123.5,202.76l49-42.52a3.65,3.65,0,0,1,4.78,0l49,42.52Z"/><path class="cls-22" d="M191.52,92.1a21.62,21.62,0,0,1,8.83,8.43,24.73,24.73,0,0,1,3.12,12.55,39.52,39.52,0,0,1-.23,4.12q-1,7.6-4.75,11.8a12.34,12.34,0,0,1-9.67,4.2c-3.74,0-6.57-1.17-8.47-3.49a.37.37,0,0,0-.55,0,10,10,0,0,1-3.68,2.54,11.81,11.81,0,0,1-4.4.87,11.4,11.4,0,0,1-7.17-2.18,8.26,8.26,0,0,1-3.28-5.58,12.89,12.89,0,0,1-.24-2.54,27.73,27.73,0,0,1,.4-4.27,26.69,26.69,0,0,1,1.5-6.66,11.47,11.47,0,0,1,4.4-5.86,11.7,11.7,0,0,1,6.69-2,7.87,7.87,0,0,1,6.17,2.45c.27.27.43.21.48-.16l.16-1.11c0-.58.39-.87,1-.87h4.35c.63,0,.92.35.87,1L185,120.6a9.16,9.16,0,0,0-.08,1.35,6.44,6.44,0,0,0,1.15,3.92,3.85,3.85,0,0,0,3.29,1.54,5.47,5.47,0,0,0,4.55-2.57,16.79,16.79,0,0,0,2.58-7.32,26.75,26.75,0,0,0,.31-4.2q0-8.71-5.18-13.5T177.82,95a26.18,26.18,0,0,0-12.08,2.85,23.36,23.36,0,0,0-9.11,8.31,27.37,27.37,0,0,0-4.07,13c-.11,1.27-.16,2.16-.16,2.69a21.55,21.55,0,0,0,2.3,10.18,16.15,16.15,0,0,0,6.53,6.77,20.18,20.18,0,0,0,10,2.37,29,29,0,0,0,7.2-.87,17.43,17.43,0,0,0,5.39-2.21,1.32,1.32,0,0,1,.63-.24,1.07,1.07,0,0,1,.63.39l2.46,3.09a1.34,1.34,0,0,1,.23.64.72.72,0,0,1-.39.63A22.16,22.16,0,0,1,180,146a35.42,35.42,0,0,1-9.51,1.27,25.28,25.28,0,0,1-12.75-3.17,22.06,22.06,0,0,1-8.63-8.94A28.19,28.19,0,0,1,146,121.71c0-.74.06-1.84.16-3.32A31.86,31.86,0,0,1,151.49,103a30.73,30.73,0,0,1,11.64-10.26,33,33,0,0,1,15.16-3.6A27.88,27.88,0,0,1,191.52,92.1Zm-16,34.52a7.52,7.52,0,0,0,2.18-2.93,9.17,9.17,0,0,0,.71-2,29.52,29.52,0,0,0,.48-3.24,26.19,26.19,0,0,0,.31-3.49,9.81,9.81,0,0,0-.16-1.66,4.18,4.18,0,0,0-1.38-2.85,4.49,4.49,0,0,0-3.13-1.11,5.87,5.87,0,0,0-3.52,1.11,6.5,6.5,0,0,0-2.26,2.85,19.34,19.34,0,0,0-1.27,5.46,24.56,24.56,0,0,0-.31,3.41,7.3,7.3,0,0,0,.16,1.5,4.4,4.4,0,0,0,1.54,2.93,5,5,0,0,0,3.36,1.11A5.09,5.09,0,0,0,175.56,126.62Z"/><polygon class="cls-21" points="123.5 128.97 132.42 137.48 132.42 195.02 123.5 202.76 123.5 128.97"/><polygon class="cls-23" points="132.42 195.02 123.5 202.76 132.42 202.76 132.42 195.02"/><circle class="cls-24" cx="121.4" cy="127.26" r="13.56"/><path class="cls-18" d="M121.2,120.76h2a.21.21,0,0,1,.2.2v11.33a.2.2,0,0,1-.06.15.2.2,0,0,1-.14.06h-2a.2.2,0,0,1-.14-.06.2.2,0,0,1-.06-.15v-9.18a.11.11,0,0,0,0-.07.06.06,0,0,0-.07,0l-1.66.46h-.06q-.15,0-.15-.18l0-1.44a.25.25,0,0,1,.15-.24l1.76-.82A.52.52,0,0,1,121.2,120.76Z"/><path class="cls-25" d="M113.16,127.26a13.56,13.56,0,0,1,10.9-13.3,13.71,13.71,0,0,0-2.66-.26,13.56,13.56,0,1,0,0,27.11,13.71,13.71,0,0,0,2.66-.26A13.56,13.56,0,0,1,113.16,127.26Z"/></g></g></svg>