<svg xmlns="http://www.w3.org/2000/svg" xmlns:xlink="http://www.w3.org/1999/xlink" viewBox="0 0 125.22 120"><defs><style>.cls-1{fill:url(#linear-gradient);}.cls-2{fill:url(#linear-gradient-2);}</style><linearGradient id="linear-gradient" x1="9.5" y1="106.39" x2="78.68" y2="23.86" gradientUnits="userSpaceOnUse"><stop offset="0" stop-color="#2476ed"/><stop offset="1" stop-color="#053ae2"/></linearGradient><linearGradient id="linear-gradient-2" x1="44.04" y1="81.19" x2="103.5" y2="10.27" xlink:href="#linear-gradient"/></defs><g id="Layer_2" data-name="Layer 2"><g id="Layer_1-2" data-name="Layer 1"><g id="Layer_2-2" data-name="Layer 2"><g id="Layer_1-2-2" data-name="Layer 1-2"><path class="cls-1" d="M49.22,120H28.46a7.52,7.52,0,0,1-7.52-7.52V30.29A7.43,7.43,0,0,1,23.16,25a7.32,7.32,0,0,1,5.32-2.18H71.17a18.36,18.36,0,0,1,17.9,17.9,17.92,17.92,0,0,1-17.89,17.9H56.74v53.89A7.52,7.52,0,0,1,49.22,120ZM30,111H47.72V57.09a7.52,7.52,0,0,1,7.52-7.52H71.18a8.9,8.9,0,0,0,8.87-8.88c0-4.92-4.86-8.88-8.88-8.88H30ZM28.47,31.81Z"/><path class="cls-2" d="M117.7,120H93.06a7.49,7.49,0,0,1-6.3-3.42L68,87.81a7.52,7.52,0,0,1-1.22-4.11V82.48A7.52,7.52,0,0,1,74.34,75h1.24c18.54,0,33.63-14.79,33.63-33S94.12,9,75.58,9H4.51a4.51,4.51,0,0,1,0-9H75.58c23.52,0,42.65,18.84,42.65,42,0,22.92-18.74,41.6-41.92,42l17.57,27h21.05L102.65,92.12a4.51,4.51,0,1,1,7.56-4.92L124,108.38A7.52,7.52,0,0,1,117.7,120Z"/></g></g></g></g></svg>