<svg xmlns="http://www.w3.org/2000/svg" xmlns:xlink="http://www.w3.org/1999/xlink" viewBox="0 0 994.75 118.74"><defs><style>.cls-1,.cls-2{fill:none;stroke-miterlimit:10;stroke-width:8.93px;}.cls-1{stroke:url(#linear-gradient);}.cls-2{stroke-linecap:round;stroke:url(#linear-gradient-2);}.cls-3{font-size:89.47px;fill:#3d4b60;font-family:Barlow-Light, Barlow;font-weight:300;letter-spacing:0.05em;}.cls-4{letter-spacing:0.04em;}.cls-5{letter-spacing:0.04em;}.cls-6{letter-spacing:0.05em;}.cls-7{letter-spacing:0.1em;}</style><linearGradient id="linear-gradient" x1="9.4" y1="105.28" x2="77.84" y2="23.63" gradientUnits="userSpaceOnUse"><stop offset="0" stop-color="#2476ed"/><stop offset="1" stop-color="#053ae2"/></linearGradient><linearGradient id="linear-gradient-2" x1="43.58" y1="80.34" x2="102.42" y2="10.15" xlink:href="#linear-gradient"/></defs><g id="Layer_2" data-name="Layer 2"><g id="Layer_1-2" data-name="Layer 1"><g id="Layer_2-2" data-name="Layer 2"><g id="Layer_1-2-2" data-name="Layer 1-2"><path class="cls-1" d="M25.18,30V111.3a3,3,0,0,0,3,3H48.71a3,3,0,0,0,3-3V56.49a3,3,0,0,1,3-3H70.43A13.25,13.25,0,0,0,83.67,40.26h0C83.67,32.94,77,27,70.42,27H28.17a3,3,0,0,0-3,3Z"/><path class="cls-2" d="M4.46,4.46H74.78c20.84,0,37.75,16.61,37.75,37.09h0c0,20.48-16.9,37.09-37.75,37.09H73.56a3,3,0,0,0-3,3v1.22a3,3,0,0,0,.48,1.62l18.53,28.47a3,3,0,0,0,2.5,1.35h24.37a3,3,0,0,0,3-3,3,3,0,0,0-.48-1.63l-13.65-21"/></g></g><text class="cls-3" transform="translate(160 91.04)">ROBERT <tspan class="cls-4" x="375.86" y="0">P</tspan><tspan class="cls-5" x="431.78" y="0">A</tspan><tspan class="cls-6" x="488.24" y="0">OLEL</tspan><tspan class="cls-7" x="717.9" y="0">L</tspan><tspan class="cls-6" x="777.49" y="0">A</tspan></text></g></g></svg>