<?xml version="1.0" encoding="utf-8"?>
<!-- Generator: Adobe Illustrator 26.0.2, SVG Export Plug-In . SVG Version: 6.00 Build 0)  -->
<svg version="1.1" id="Layer_1" xmlns="http://www.w3.org/2000/svg" xmlns:xlink="http://www.w3.org/1999/xlink" x="0px" y="0px"
	 viewBox="0 0 994.8 118.7" style="enable-background:new 0 0 994.8 118.7;" xml:space="preserve">
<style type="text/css">
	.st0{fill:none;stroke:#DBE2ED;stroke-width:8.93;stroke-miterlimit:10;}
	.st1{fill:none;stroke:#DBE2ED;stroke-width:8.93;stroke-linecap:round;stroke-miterlimit:10;}
	.st2{fill:#DBE2ED;}
</style>
<path class="st0" d="M25.2,30v81.3c0,1.7,1.3,3,3,3h20.5c1.7,0,3-1.3,3-3V56.5c0-1.7,1.3-3,3-3h15.7c7.3,0,13.2-5.9,13.2-13.2l0,0
	C83.7,32.9,77,27,70.4,27H28.2C26.5,27,25.2,28.3,25.2,30L25.2,30z"/>
<path class="st1" d="M4.5,4.5h70.3c20.8,0,37.8,16.6,37.8,37.1l0,0c0,20.5-16.9,37.1-37.8,37.1h-1.2c-1.7,0-3,1.3-3,3v1.2
	c0,0.6,0.2,1.1,0.5,1.6L89.6,113c0.6,0.8,1.5,1.3,2.5,1.3h24.4c1.7,0,3-1.3,3-3c0-0.6-0.2-1.1-0.5-1.6l-13.7-21"/>
<g>
	<path class="st2" d="M203.4,88.7l-13.1-27.2c-0.1-0.2-0.2-0.3-0.3-0.3h-16.2c-0.2,0-0.3,0.1-0.3,0.3v26.9c0,0.6-0.3,0.9-0.9,0.9
		h-2.8c-0.6,0-0.9-0.3-0.9-0.9V30.2c0-0.6,0.3-0.9,0.9-0.9h21.6c4.8,0,8.7,1.5,11.6,4.5c2.9,3,4.4,6.9,4.4,11.7
		c0,4.1-1.1,7.5-3.3,10.2c-2.2,2.8-5.2,4.5-9,5.2c-0.3,0.1-0.4,0.3-0.3,0.4l13.1,27c0.1,0.1,0.1,0.3,0.1,0.4c0,0.4-0.2,0.6-0.7,0.6
		h-2.8C203.9,89.3,203.6,89.1,203.4,88.7z M173.4,33.7v23.4c0,0.2,0.1,0.3,0.3,0.3h17.1c3.5,0,6.4-1.1,8.6-3.3
		c2.2-2.2,3.3-5.1,3.3-8.7c0-3.6-1.1-6.5-3.3-8.7c-2.2-2.2-5.1-3.3-8.6-3.3h-17.1C173.5,33.3,173.4,33.5,173.4,33.7z"/>
	<path class="st2" d="M235.1,87.5c-3-1.6-5.3-3.9-6.9-6.9c-1.6-2.9-2.4-6.3-2.4-10.2V48.1c0-3.8,0.8-7.2,2.4-10.2
		c1.6-2.9,3.9-5.2,6.9-6.9c3-1.6,6.5-2.4,10.4-2.4s7.4,0.8,10.5,2.4c3,1.6,5.4,3.9,7,6.9c1.7,2.9,2.5,6.3,2.5,10.2v22.4
		c0,3.8-0.8,7.2-2.5,10.2c-1.7,2.9-4,5.2-7,6.9c-3,1.6-6.5,2.4-10.5,2.4S238.1,89.2,235.1,87.5z M256.7,81.8
		c2.8-2.8,4.2-6.5,4.2-11.1V48c0-4.6-1.4-8.3-4.2-11.1c-2.8-2.8-6.6-4.2-11.2-4.2c-4.6,0-8.3,1.4-11.1,4.2
		c-2.8,2.8-4.2,6.5-4.2,11.1v22.7c0,4.6,1.4,8.3,4.2,11.1c2.8,2.8,6.5,4.2,11.1,4.2C250.2,86,253.9,84.6,256.7,81.8z"/>
	<path class="st2" d="M316,58.2c0,0.1,0.1,0.1,0.2,0.2c3.1,1.3,5.5,3.2,7.2,5.7c1.7,2.5,2.5,5.5,2.5,9c0,5-1.6,9-4.8,11.9
		c-3.2,2.9-7.4,4.3-12.6,4.3h-20.3c-0.6,0-0.9-0.3-0.9-0.9V30.2c0-0.6,0.3-0.9,0.9-0.9H308c5.3,0,9.5,1.4,12.6,4.1
		c3.1,2.7,4.6,6.5,4.6,11.4c0,3.2-0.8,5.9-2.3,8.1c-1.5,2.2-3.8,3.9-6.7,5.1C316.1,58.1,316,58.1,316,58.2z M292,33.7v22.4
		c0,0.2,0.1,0.3,0.3,0.3H308c3.9,0,7-1,9.3-3.1c2.3-2.1,3.5-4.8,3.5-8.3c0-3.5-1.2-6.4-3.5-8.5c-2.3-2.1-5.4-3.2-9.3-3.2h-15.7
		C292.1,33.3,292,33.5,292,33.7z M317.9,81.8c2.3-2.3,3.5-5.2,3.5-9c0-3.8-1.2-6.9-3.6-9.1c-2.4-2.3-5.6-3.4-9.6-3.4h-15.8
		c-0.2,0-0.3,0.1-0.3,0.3v24.2c0,0.2,0.1,0.3,0.3,0.3h16.3C312.5,85.2,315.6,84,317.9,81.8z"/>
	<path class="st2" d="M385.1,33.3h-32.5c-0.2,0-0.3,0.1-0.3,0.3v23.1c0,0.2,0.1,0.3,0.3,0.3h23c0.6,0,0.9,0.3,0.9,0.9v2.3
		c0,0.6-0.3,0.9-0.9,0.9h-23c-0.2,0-0.3,0.1-0.3,0.3v23.4c0,0.2,0.1,0.3,0.3,0.3h32.5c0.6,0,0.9,0.3,0.9,0.9v2.3
		c0,0.6-0.3,0.9-0.9,0.9h-36.5c-0.6,0-0.9-0.3-0.9-0.9V30.2c0-0.6,0.3-0.9,0.9-0.9h36.5c0.6,0,0.9,0.3,0.9,0.9v2.3
		C386,33.1,385.7,33.3,385.1,33.3z"/>
	<path class="st2" d="M441,88.7l-13.1-27.2c-0.1-0.2-0.2-0.3-0.3-0.3h-16.2c-0.2,0-0.3,0.1-0.3,0.3v26.9c0,0.6-0.3,0.9-0.9,0.9h-2.8
		c-0.6,0-0.9-0.3-0.9-0.9V30.2c0-0.6,0.3-0.9,0.9-0.9H429c4.8,0,8.7,1.5,11.6,4.5c2.9,3,4.4,6.9,4.4,11.7c0,4.1-1.1,7.5-3.3,10.2
		c-2.2,2.8-5.2,4.5-9,5.2c-0.3,0.1-0.4,0.3-0.3,0.4l13.1,27c0.1,0.1,0.1,0.3,0.1,0.4c0,0.4-0.2,0.6-0.7,0.6h-2.8
		C441.6,89.3,441.2,89.1,441,88.7z M411.1,33.7v23.4c0,0.2,0.1,0.3,0.3,0.3h17.1c3.5,0,6.4-1.1,8.6-3.3c2.2-2.2,3.3-5.1,3.3-8.7
		c0-3.6-1.1-6.5-3.3-8.7c-2.2-2.2-5.1-3.3-8.6-3.3h-17.1C411.2,33.3,411.1,33.5,411.1,33.7z"/>
	<path class="st2" d="M501,30.2v2.3c0,0.6-0.3,0.9-0.9,0.9H483c-0.2,0-0.3,0.1-0.3,0.3v54.7c0,0.6-0.3,0.9-0.9,0.9H479
		c-0.6,0-0.9-0.3-0.9-0.9V33.7c0-0.2-0.1-0.3-0.3-0.3h-16.3c-0.6,0-0.9-0.3-0.9-0.9v-2.3c0-0.6,0.3-0.9,0.9-0.9h38.6
		C500.7,29.3,501,29.6,501,30.2z"/>
	<path class="st2" d="M577.8,33.6c3,3,4.5,7,4.5,11.9c0,4.9-1.5,8.8-4.5,11.7c-3,3-7,4.5-11.9,4.5h-17.8c-0.2,0-0.3,0.1-0.3,0.3
		v26.4c0,0.6-0.3,0.9-0.9,0.9H544c-0.6,0-0.9-0.3-0.9-0.9V30c0-0.6,0.3-0.9,0.9-0.9h22C570.9,29.1,574.8,30.6,577.8,33.6z
		 M574.4,54.5c2.2-2.3,3.3-5.2,3.3-8.9c0-3.7-1.1-6.7-3.3-9c-2.2-2.3-5.1-3.4-8.7-3.4h-17.6c-0.2,0-0.3,0.1-0.3,0.3v23.9
		c0,0.2,0.1,0.3,0.3,0.3h17.6C569.3,57.8,572.2,56.7,574.4,54.5z"/>
	<path class="st2" d="M633.4,88.6l-3.7-11.4c-0.1-0.2-0.2-0.3-0.3-0.3h-26.7c-0.2,0-0.3,0.1-0.3,0.3l-3.6,11.4
		c-0.2,0.5-0.5,0.7-1,0.7h-3c-0.6,0-0.9-0.3-0.7-0.9L613,30c0.2-0.5,0.5-0.7,1-0.7h3.9c0.5,0,0.9,0.2,1,0.7L638,88.3l0.1,0.3
		c0,0.4-0.3,0.6-0.8,0.6h-2.9C633.9,89.3,633.6,89.1,633.4,88.6z M603.7,73c0.1,0.1,0.2,0.1,0.3,0.1h24c0.1,0,0.2,0,0.3-0.1
		c0.1-0.1,0.1-0.2,0-0.3l-12.1-37.3c-0.1-0.1-0.1-0.2-0.3-0.2c-0.1,0-0.2,0.1-0.3,0.2l-12.1,37.3C603.6,72.9,603.6,73,603.7,73z"/>
	<path class="st2" d="M663.1,87.5c-3-1.6-5.3-3.9-6.9-6.9c-1.6-2.9-2.4-6.3-2.4-10.2V48.1c0-3.8,0.8-7.2,2.4-10.2
		c1.6-2.9,3.9-5.2,6.9-6.9c3-1.6,6.5-2.4,10.4-2.4c3.9,0,7.4,0.8,10.5,2.4c3,1.6,5.4,3.9,7,6.9c1.7,2.9,2.5,6.3,2.5,10.2v22.4
		c0,3.8-0.8,7.2-2.5,10.2c-1.7,2.9-4,5.2-7,6.9c-3,1.6-6.5,2.4-10.5,2.4C669.5,90,666.1,89.2,663.1,87.5z M684.7,81.8
		c2.8-2.8,4.2-6.5,4.2-11.1V48c0-4.6-1.4-8.3-4.2-11.1s-6.6-4.2-11.2-4.2c-4.6,0-8.3,1.4-11.1,4.2c-2.8,2.8-4.2,6.5-4.2,11.1v22.7
		c0,4.6,1.4,8.3,4.2,11.1c2.8,2.8,6.5,4.2,11.1,4.2C678.1,86,681.8,84.6,684.7,81.8z"/>
	<path class="st2" d="M715.4,88.4V30.2c0-0.6,0.3-0.9,0.9-0.9h2.8c0.6,0,0.9,0.3,0.9,0.9v54.7c0,0.2,0.1,0.3,0.3,0.3H751
		c0.6,0,0.9,0.3,0.9,0.9v2.3c0,0.6-0.3,0.9-0.9,0.9h-34.8C715.7,89.3,715.4,89,715.4,88.4z"/>
	<path class="st2" d="M807.7,33.3h-32.5c-0.2,0-0.3,0.1-0.3,0.3v23.1c0,0.2,0.1,0.3,0.3,0.3h23c0.6,0,0.9,0.3,0.9,0.9v2.3
		c0,0.6-0.3,0.9-0.9,0.9h-23c-0.2,0-0.3,0.1-0.3,0.3v23.4c0,0.2,0.1,0.3,0.3,0.3h32.5c0.6,0,0.9,0.3,0.9,0.9v2.3
		c0,0.6-0.3,0.9-0.9,0.9h-36.5c-0.6,0-0.9-0.3-0.9-0.9V30.2c0-0.6,0.3-0.9,0.9-0.9h36.5c0.6,0,0.9,0.3,0.9,0.9v2.3
		C808.6,33.1,808.3,33.3,807.7,33.3z"/>
	<path class="st2" d="M829.1,88.4V30.2c0-0.6,0.3-0.9,0.9-0.9h2.8c0.6,0,0.9,0.3,0.9,0.9v54.7c0,0.2,0.1,0.3,0.3,0.3h30.8
		c0.6,0,0.9,0.3,0.9,0.9v2.3c0,0.6-0.3,0.9-0.9,0.9H830C829.4,89.3,829.1,89,829.1,88.4z"/>
	<path class="st2" d="M884.1,88.4V30.2c0-0.6,0.3-0.9,0.9-0.9h2.8c0.6,0,0.9,0.3,0.9,0.9v54.7c0,0.2,0.1,0.3,0.3,0.3h30.8
		c0.6,0,0.9,0.3,0.9,0.9v2.3c0,0.6-0.3,0.9-0.9,0.9H885C884.4,89.3,884.1,89,884.1,88.4z"/>
	<path class="st2" d="M977.3,88.6l-3.7-11.4c-0.1-0.2-0.2-0.3-0.3-0.3h-26.7c-0.2,0-0.3,0.1-0.3,0.3l-3.6,11.4
		c-0.2,0.5-0.5,0.7-1,0.7h-3c-0.6,0-0.9-0.3-0.7-0.9l19-58.3c0.2-0.5,0.5-0.7,1-0.7h3.9c0.5,0,0.9,0.2,1,0.7l19.1,58.3l0.1,0.3
		c0,0.4-0.3,0.6-0.8,0.6h-2.9C977.8,89.3,977.4,89.1,977.3,88.6z M947.6,73c0.1,0.1,0.2,0.1,0.3,0.1h24c0.1,0,0.2,0,0.3-0.1
		c0.1-0.1,0.1-0.2,0-0.3l-12.1-37.3c-0.1-0.1-0.1-0.2-0.3-0.2c-0.1,0-0.2,0.1-0.3,0.2l-12.1,37.3C947.5,72.9,947.5,73,947.6,73z"/>
</g>
</svg>
