<svg xmlns="http://www.w3.org/2000/svg" viewBox="0 0 481.75 388.65"><defs><style>.cls-1{fill:#3d4b60;}.cls-2{fill:#e9efff;}.cls-3{fill:#d3dcfb;}.cls-4{fill:#bec8f7;}.cls-5{fill:#ff4155;}.cls-6{fill:#e80054;}.cls-7{fill:#ff7186;}.cls-8{fill:#3b3868;}.cls-9{fill:none;}.cls-10{fill:#47477f;}.cls-11{fill:#2d2d59;}.cls-12{fill:#1aa9e8;}.cls-13{fill:#42c3fc;}.cls-14{fill:#ffdd40;}.cls-15{fill:#89e56a;}.cls-16{fill:#ef9411;}.cls-17{fill:#8ae1ff;}.cls-18{fill:#b8f0ff;}.cls-19{fill:#a2b6f4;}.cls-20{fill:#fc95a9;}.cls-21{fill:#4d5e77;}.cls-22{fill:#dcf1f9;}.cls-23{fill:#ccdde2;}.cls-24{fill:#9dbec6;}.cls-25{fill:#43f955;}.cls-26{fill:#3dd348;}.cls-27{fill:#caffca;}.cls-28{fill:#ffb332;}.cls-29{fill:#fceca9;}.cls-30{fill:#ff9100;}.cls-31{fill:#5f5f9b;}.cls-32{fill:#fcf9eb;}</style></defs><g id="Layer_2" data-name="Layer 2"><g id="Layer_1-2" data-name="Layer 1"><path class="cls-1" d="M265.38,175.58c32.58,15.75,60.29,39.68,68.11,66.85,7.83,27.33-4.44,57.9-25.17,85.38S258,379.53,223.07,385.39c-34.69,5.71-74.88-6.95-114.44-18.37-39.55-11.58-78.69-21.77-96.46-42.15-18-20.22-14.38-50.63,0-74.26s39.77-40.44,66-57,53.31-32.42,85.46-36.75C196,152.58,233,160,265.38,175.58Z"/><path class="cls-2" d="M102.33,321a2.83,2.83,0,0,0-1.14,4.59l6.46,7a2.9,2.9,0,0,1,.38.52l30.66,54.07a2.83,2.83,0,0,0,4,1l9.38-6.1-40.72-64.3Z"/><path class="cls-3" d="M160.39,373.43l-21-35.33a2.85,2.85,0,0,1,.6-3.61,2.83,2.83,0,0,0,.31-4l-6.45-7.58a2.88,2.88,0,0,1-.66-1.5l-.86-7.37a2.84,2.84,0,0,0-3.76-2.34l-17.18,6.08,40.72,64.3,7.42-4.83A2.83,2.83,0,0,0,160.39,373.43Z"/><path class="cls-4" d="M212.73,160.32a141.54,141.54,0,0,1-16.74,22c-20.66,22.25-44.15,33.1-59.29,38.45l15,42.3c50-18.65,75.48-49.11,78.71-52.91Z"/><path class="cls-3" d="M151.68,263.09l15,42.36c15.14-5.37,40.22-11.72,70.27-7.43a141.13,141.13,0,0,1,26.87,6.57l-33.43-94.41C227.16,214,201.73,244.44,151.68,263.09Z"/><path class="cls-3" d="M217.21,146.87a8.71,8.71,0,0,0-5.3,11.13l.82,2.32,17.66,49.86c-.39-8.59,7.73-12.93,15.3-9l-17.35-49A8.72,8.72,0,0,0,217.21,146.87Z"/><path class="cls-2" d="M230.39,210.18l33.43,94.41.83,2.32a8.72,8.72,0,1,0,16.43-5.82l-35.39-99.92C238.12,197.25,230,201.59,230.39,210.18Z"/><path class="cls-5" d="M116.3,317.28a7.21,7.21,0,0,0,9.2,4.39L163,308.38a7.19,7.19,0,0,0,4.38-9.19l-13.13-37.08L103.17,280.2Z"/><path class="cls-6" d="M132,220.83,94.49,234.11a7.21,7.21,0,0,0-4.39,9.19l13.07,36.9,51.09-18.09-13.07-36.9A7.19,7.19,0,0,0,132,220.83Z"/><rect class="cls-7" x="98.58" y="236.41" width="39.06" height="9.6" rx="4.8" transform="translate(-73.75 53.27) rotate(-19.5)"/><rect class="cls-7" x="103.9" y="251.43" width="39.06" height="9.6" rx="4.8" transform="translate(-78.46 55.91) rotate(-19.5)"/><rect class="cls-7" x="109.22" y="266.45" width="39.06" height="9.6" rx="4.8" transform="translate(-83.17 58.54) rotate(-19.5)"/><rect class="cls-7" x="114.54" y="281.46" width="39.06" height="9.6" rx="4.8" transform="translate(-87.88 61.18) rotate(-19.5)"/><rect class="cls-7" x="119.86" y="296.48" width="39.06" height="9.6" rx="4.8" transform="translate(-92.58 63.82) rotate(-19.5)"/><path class="cls-7" d="M48.12,312.36a29.41,29.41,0,0,0,37.54,17.9L117,319.17l-13.8-39-59,20.91Z"/><path class="cls-5" d="M58.12,252.51A29.4,29.4,0,0,0,40.22,290l3.92,11.07,59-20.91L89.44,241.42Z"/><path class="cls-2" d="M44,293.9h.29a0,0,0,0,1,0,0v16.7a0,0,0,0,1,0,0H44a6.52,6.52,0,0,1-6.52-6.52v-3.66A6.52,6.52,0,0,1,44,293.9Z" transform="translate(-98.56 31.01) rotate(-19.5)"/><path class="cls-8" d="M346,99l.69-.15L346,99Z"/><path class="cls-4" d="M345.65,99.07,346,99h0Z"/><path class="cls-9" d="M303.55,88c.84.72,1.69,1.42,2.58,2.08-.89-.66-1.74-1.36-2.58-2.08Z"/><path class="cls-9" d="M336,0c-.75,0-1.5,0-2.25.05.75,0,1.5,0,2.25,0Z"/><path class="cls-9" d="M380.11,88h6.17V81.81A6.18,6.18,0,0,1,380.11,88Z"/><path class="cls-9" d="M380.11,10.54a6.18,6.18,0,0,1,6.17,6.18V10.54Z"/><path class="cls-9" d="M366.75,10.54l-.4-.3.38.3Z"/><path class="cls-9" d="M368.23,88.25l.32-.26h0Z"/><path class="cls-1" d="M346,88V99l.69-.14,1.3-.3,1-.26,1.26-.36,1-.3,1.25-.43,1-.34,1.27-.5c.3-.12.6-.23.89-.36.53-.22,1.06-.47,1.58-.71s.82-.39,1.22-.6l1.29-.65.95-.54c.35-.2.7-.39,1-.6l1-.61,1-.61,1-.66c.31-.21.61-.43.91-.65l.94-.7.87-.68.91-.75.3-.26Z"/><path class="cls-1" d="M366.73,10.54l-.38-.3-.8-.6q-.51-.37-1-.72l-.81-.56-1.16-.74-.72-.46c-.62-.37-1.24-.73-1.87-1.07l-.66-.35L358,5.06c-.27-.14-.56-.26-.83-.39l-1.23-.56L355,3.74l-1.25-.49-.87-.33-1.41-.47-.75-.25c-.71-.22-1.44-.42-2.17-.61l-.4-.1c-.61-.15-1.22-.29-1.84-.42l-.8-.16L344,.64l-.88-.13L341.68.32,340.8.23c-.53-.05-1.07-.09-1.6-.12l-.77,0C337.64,0,336.84,0,336,0h0c-.75,0-1.5,0-2.25.05a51.25,51.25,0,0,0-6.6.73A49.52,49.52,0,0,0,318.85,3c-.77.28-1.52.58-2.27.9-1.5.63-2.95,1.34-4.37,2.1a49.89,49.89,0,0,0-6.08,3.9c-.27.2-.52.41-.78.61h61.38Z"/><path class="cls-1" d="M311.11,88h-7.56c.84.72,1.69,1.42,2.58,2.08a49.89,49.89,0,0,0,6.08,3.9c1.42.76,2.87,1.47,4.37,2.1.75.32,1.5.62,2.27.9a49.83,49.83,0,0,0,7.32,2V88Z"/><path class="cls-2" d="M381.4,72H302.85v7.78A8.26,8.26,0,0,0,311.11,88h69a6.18,6.18,0,0,0,6.17-6.18V72Zm-45.32,11.6A3.58,3.58,0,1,1,339.66,80,3.58,3.58,0,0,1,336.08,83.55Z"/><path class="cls-4" d="M302.42,87c.37.34.75.66,1.13,1h0C303.17,87.67,302.79,87.35,302.42,87Z"/><path class="cls-4" d="M302.85,79.73V72H291.11A50.21,50.21,0,0,0,302.42,87c.37.34.75.66,1.13,1h7.56A8.26,8.26,0,0,1,302.85,79.73Z"/><path class="cls-8" d="M294.87,21.64v3.5h8v-.57a1.7,1.7,0,0,1,0-3.39v-.67h-7.18C295.4,20.89,295.13,21.26,294.87,21.64Zm3.13-.46a1.7,1.7,0,1,1-1.7,1.69A1.69,1.69,0,0,1,298,21.18Z"/><path class="cls-8" d="M299,16.4h4.19a8.27,8.27,0,0,1,7.9-5.86h-5.76c-1,.79-2,1.59-2.93,2.45Q300.64,14.61,299,16.4Z"/><path class="cls-1" d="M286,50a49.89,49.89,0,0,0,4.71,21.19V28.81A49.89,49.89,0,0,0,286,50Z"/><path class="cls-10" d="M380.11,10.54h-69a8.27,8.27,0,0,0-7.9,5.86h76.14a2.05,2.05,0,0,1,2,2.06V72h4.88V16.72A6.18,6.18,0,0,0,380.11,10.54Z"/><path class="cls-11" d="M294.87,25.14v-3.5a50.85,50.85,0,0,0-4.12,7.17V71.19l.36.76h3.76Z"/><path class="cls-11" d="M302.85,20.51V18.8a8.3,8.3,0,0,1,.36-2.4H299a48.82,48.82,0,0,0-3.35,4.11Z"/><path class="cls-8" d="M381.4,72V71c-.14.31-.28.61-.43.92Z"/><path class="cls-8" d="M379.35,16.4H303.21a8.3,8.3,0,0,0-.36,2.4v1.71h74a.42.42,0,0,1,.41.42V72H381c.15-.31.29-.61.43-.92V18.46A2.05,2.05,0,0,0,379.35,16.4Z"/><path class="cls-10" d="M376.88,20.51h-74v.67a1.7,1.7,0,1,1,0,3.39v.57h74.44V20.93A.42.42,0,0,0,376.88,20.51ZM307.7,24.57a1.7,1.7,0,1,1,1.7-1.7A1.7,1.7,0,0,1,307.7,24.57Z"/><path class="cls-12" d="M299.09,65.26a1.58,1.58,0,0,1,0-3.15h3.76V59.2h-3.76a1.57,1.57,0,1,1,0-3.14h3.76V53.15h-3.76a1.58,1.58,0,0,1,0-3.15h3.76V47.09h-3.76a1.58,1.58,0,0,1,0-3.15h3.76V41h-3.76a1.58,1.58,0,0,1,0-3.15h3.76V35h-3.76a1.58,1.58,0,0,1,0-3.15h3.76V25.14h-8V72h8V65.26Z"/><path class="cls-13" d="M302.85,31.83h.25a1.58,1.58,0,0,1,0,3.15h-.25v2.91h.25a1.58,1.58,0,0,1,0,3.15h-.25v2.9h.25a1.58,1.58,0,0,1,0,3.15h-.25V50h.25a1.58,1.58,0,0,1,0,3.15h-.25v2.91h.25a1.57,1.57,0,0,1,0,3.14h-.25v2.91h.25a1.58,1.58,0,0,1,0,3.15h-.25V72h74.44V25.14H302.85Zm15.61,33.43h-4a1.58,1.58,0,0,1,0-3.15h4a1.58,1.58,0,1,1,0,3.15Zm-4.24-7.63a1.57,1.57,0,0,1,1.57-1.57h1.33a1.57,1.57,0,1,1,0,3.14h-1.33A1.57,1.57,0,0,1,314.22,57.63Zm11.1,7.63H324a1.58,1.58,0,1,1,0-3.15h1.33a1.58,1.58,0,0,1,0,3.15ZM367.55,40A1.71,1.71,0,0,1,371,40V57.14a1.71,1.71,0,0,1-3.42,0Zm-6,3a1.71,1.71,0,0,1,3.42,0V57.14a1.71,1.71,0,0,1-3.42,0Zm-6,3a1.71,1.71,0,0,1,3.42,0V57.14a1.71,1.71,0,0,1-3.42,0Zm-6,3a1.71,1.71,0,0,1,3.42,0v8.26a1.71,1.71,0,0,1-3.42,0Zm-6,3a1.71,1.71,0,1,1,3.42,0v5.28a1.71,1.71,0,1,1-3.42,0ZM334.5,29.05a1.58,1.58,0,1,1,3.15,0v39a1.58,1.58,0,0,1-3.15,0Zm-2.41,10.41A1.58,1.58,0,0,1,330.52,41h-4a1.58,1.58,0,1,1,0-3.15h4A1.57,1.57,0,0,1,332.09,39.46Zm-9.16-7.63h4a1.58,1.58,0,0,1,0,3.15h-4a1.58,1.58,0,1,1,0-3.15Zm-2.1,6.06a1.58,1.58,0,0,1,0,3.15h-1.34a1.58,1.58,0,0,1,0-3.15Zm.54,7.63a1.57,1.57,0,0,1-1.57,1.57h-4a1.58,1.58,0,0,1,0-3.15h4A1.57,1.57,0,0,1,321.37,45.52ZM309,31.83h8.13a1.58,1.58,0,0,1,0,3.15H309a1.58,1.58,0,0,1,0-3.15Zm-.17,6.06h5a1.58,1.58,0,0,1,0,3.15h-5a1.58,1.58,0,1,1,0-3.15Zm0,6h1.33a1.58,1.58,0,1,1,0,3.15h-1.33a1.58,1.58,0,1,1,0-3.15Zm0,6.06h14.3a1.58,1.58,0,0,1,0,3.15h-14.3a1.58,1.58,0,1,1,0-3.15Z"/><path class="cls-4" d="M336.08,76.39A3.58,3.58,0,1,0,339.66,80,3.58,3.58,0,0,0,336.08,76.39Z"/><circle class="cls-5" cx="298" cy="22.87" r="1.69"/><path class="cls-14" d="M301.16,22.87a1.69,1.69,0,0,0,1.69,1.7V21.18A1.69,1.69,0,0,0,301.16,22.87Z"/><path class="cls-14" d="M304.55,22.87a1.7,1.7,0,0,0-1.7-1.69v3.39A1.7,1.7,0,0,0,304.55,22.87Z"/><path class="cls-15" d="M307.7,24.57a1.7,1.7,0,1,0-1.69-1.7A1.7,1.7,0,0,0,307.7,24.57Z"/><path class="cls-16" d="M345.29,58.85A1.72,1.72,0,0,0,347,57.14V51.86a1.71,1.71,0,1,0-3.42,0v5.28A1.71,1.71,0,0,0,345.29,58.85Z"/><path class="cls-14" d="M351.28,58.85A1.72,1.72,0,0,0,353,57.14V48.88a1.71,1.71,0,0,0-3.42,0v8.26A1.72,1.72,0,0,0,351.28,58.85Z"/><path class="cls-16" d="M357.27,58.85A1.71,1.71,0,0,0,359,57.14V45.91a1.71,1.71,0,0,0-3.42,0V57.14A1.72,1.72,0,0,0,357.27,58.85Z"/><path class="cls-14" d="M363.26,58.85A1.71,1.71,0,0,0,365,57.14V42.93a1.71,1.71,0,0,0-3.42,0V57.14A1.72,1.72,0,0,0,363.26,58.85Z"/><path class="cls-16" d="M369.26,58.85A1.72,1.72,0,0,0,371,57.14V40a1.71,1.71,0,0,0-3.42,0V57.14A1.71,1.71,0,0,0,369.26,58.85Z"/><path class="cls-17" d="M336.08,69.62a1.57,1.57,0,0,0,1.57-1.57v-39a1.58,1.58,0,1,0-3.15,0v39A1.58,1.58,0,0,0,336.08,69.62Z"/><path class="cls-17" d="M309,35h8.13a1.58,1.58,0,0,0,0-3.15H309A1.58,1.58,0,0,0,309,35Z"/><path class="cls-18" d="M322.93,35h4a1.58,1.58,0,0,0,0-3.15h-4a1.58,1.58,0,1,0,0,3.15Z"/><path class="cls-18" d="M297.52,33.41A1.57,1.57,0,0,0,299.09,35h3.76V31.83h-3.76A1.57,1.57,0,0,0,297.52,33.41Z"/><path class="cls-18" d="M303.1,35a1.58,1.58,0,0,0,0-3.15h-.25V35Z"/><path class="cls-18" d="M297.52,39.46A1.57,1.57,0,0,0,299.09,41h3.76V37.89h-3.76A1.57,1.57,0,0,0,297.52,39.46Z"/><path class="cls-18" d="M303.1,41a1.58,1.58,0,0,0,0-3.15h-.25V41Z"/><path class="cls-17" d="M308.78,41h5a1.58,1.58,0,0,0,0-3.15h-5a1.58,1.58,0,1,0,0,3.15Z"/><path class="cls-17" d="M317.92,39.46A1.58,1.58,0,0,0,319.49,41h1.34a1.58,1.58,0,0,0,0-3.15h-1.34A1.57,1.57,0,0,0,317.92,39.46Z"/><path class="cls-17" d="M324.93,39.46A1.58,1.58,0,0,0,326.51,41h4a1.58,1.58,0,0,0,0-3.15h-4A1.57,1.57,0,0,0,324.93,39.46Z"/><path class="cls-17" d="M297.52,45.52a1.57,1.57,0,0,0,1.57,1.57h3.76V43.94h-3.76A1.57,1.57,0,0,0,297.52,45.52Z"/><path class="cls-17" d="M303.1,47.09a1.58,1.58,0,0,0,0-3.15h-.25v3.15Z"/><path class="cls-17" d="M297.52,51.57a1.57,1.57,0,0,0,1.57,1.58h3.76V50h-3.76A1.57,1.57,0,0,0,297.52,51.57Z"/><path class="cls-17" d="M303.1,53.15a1.58,1.58,0,0,0,0-3.15h-.25v3.15Z"/><path class="cls-18" d="M297.52,57.63a1.57,1.57,0,0,0,1.57,1.57h3.76V56.06h-3.76A1.57,1.57,0,0,0,297.52,57.63Z"/><path class="cls-18" d="M303.1,59.2a1.57,1.57,0,0,0,0-3.14h-.25V59.2Z"/><path class="cls-17" d="M297.52,63.69a1.57,1.57,0,0,0,1.57,1.57h3.76V62.11h-3.76A1.57,1.57,0,0,0,297.52,63.69Z"/><path class="cls-17" d="M303.1,65.26a1.58,1.58,0,0,0,0-3.15h-.25v3.15Z"/><path class="cls-18" d="M308.78,53.15h14.3a1.58,1.58,0,0,0,0-3.15h-14.3a1.58,1.58,0,1,0,0,3.15Z"/><path class="cls-18" d="M308.78,47.09h1.33a1.58,1.58,0,1,0,0-3.15h-1.33a1.58,1.58,0,1,0,0,3.15Z"/><path class="cls-18" d="M315.79,43.94a1.58,1.58,0,0,0,0,3.15h4a1.58,1.58,0,0,0,0-3.15Z"/><path class="cls-18" d="M315.79,59.2h1.33a1.57,1.57,0,1,0,0-3.14h-1.33a1.57,1.57,0,1,0,0,3.14Z"/><path class="cls-17" d="M318.46,62.11h-4a1.58,1.58,0,0,0,0,3.15h4a1.58,1.58,0,1,0,0-3.15Z"/><path class="cls-18" d="M325.32,62.11H324a1.58,1.58,0,1,0,0,3.15h1.33a1.58,1.58,0,0,0,0-3.15Z"/><path class="cls-19" d="M331.4,98.3a5.85,5.85,0,0,1,5.85-5.85H346V88H326.17V99a52.67,52.67,0,0,0,5.23.76Z"/><path class="cls-4" d="M336,100h0c-1.57,0-3.11-.08-4.64-.22C332.93,99.92,334.47,100,336,100Z"/><path class="cls-4" d="M331.4,98.3v1.48c1.53.14,3.07.22,4.64.22h0c.82,0,1.64,0,2.45-.06l.81-.06c.54,0,1.08-.07,1.61-.12l1-.11c.48-.05,1-.11,1.43-.18l1-.16,1.35-.24L346,99V92.45h-8.73A5.85,5.85,0,0,0,331.4,98.3Z"/><path class="cls-8" d="M379.85,149.33c.07-.23.15-.45.22-.67C380,148.88,379.92,149.1,379.85,149.33Z"/><path class="cls-8" d="M381.4,145c.08-.2.15-.4.24-.59C381.55,144.63,381.48,144.83,381.4,145Z"/><path class="cls-8" d="M380.55,147.24l.28-.78Z"/><path class="cls-8" d="M418.73,114.82c.68-.12,1.37-.23,2-.33C420.1,114.59,419.41,114.7,418.73,114.82Z"/><path class="cls-8" d="M421.76,114.37c.68-.08,1.36-.14,2.05-.2C423.12,114.23,422.44,114.29,421.76,114.37Z"/><path class="cls-8" d="M415.12,115.6c.92-.24,1.86-.45,2.8-.63C417,115.15,416,115.36,415.12,115.6Z"/><path class="cls-8" d="M382.47,142.61c.12-.27.25-.53.38-.79C382.72,142.08,382.59,142.34,382.47,142.61Z"/><path class="cls-8" d="M383.44,140.67l.43-.8Z"/><path class="cls-8" d="M384.66,138.5l.55-.91Z"/><path class="cls-8" d="M382.85,186.2c-.13-.26-.26-.52-.38-.78C382.59,185.68,382.72,185.94,382.85,186.2Z"/><path class="cls-8" d="M383.87,188.15l-.43-.8Z"/><path class="cls-8" d="M381.64,183.58c-.09-.19-.16-.39-.24-.58C381.48,183.19,381.55,183.39,381.64,183.58Z"/><path class="cls-8" d="M425.35,214l-.69,0Z"/><path class="cls-8" d="M423,213.79l-.69-.07Z"/><path class="cls-8" d="M380.83,181.56l-.28-.78Z"/><path class="cls-8" d="M424.71,114.11c1-.06,2-.1,3-.1C426.67,114,425.68,114.05,424.71,114.11Z"/><path class="cls-8" d="M380.07,179.36c-.07-.22-.15-.44-.22-.66C379.92,178.92,380,179.14,380.07,179.36Z"/><path class="cls-8" d="M385.21,190.43c-.19-.3-.37-.6-.55-.91C384.84,189.83,385,190.13,385.21,190.43Z"/><path class="cls-9" d="M380.83,146.46c.18-.48.37-1,.57-1.43C381.2,145.5,381,146,380.83,146.46Z"/><path class="cls-9" d="M381.64,144.44c.26-.62.54-1.23.83-1.83C382.18,143.21,381.9,143.82,381.64,144.44Z"/><path class="cls-9" d="M382.85,141.82l.59-1.15Z"/><path class="cls-9" d="M380.07,148.66c.15-.48.31-.95.48-1.42C380.38,147.71,380.22,148.18,380.07,148.66Z"/><path class="cls-9" d="M379.28,151.36c.18-.69.37-1.36.57-2C379.65,150,379.46,150.67,379.28,151.36Z"/><path class="cls-9" d="M383.87,139.87c.25-.46.52-.91.79-1.37C384.39,139,384.12,139.41,383.87,139.87Z"/><path class="cls-9" d="M379.85,178.7c-.2-.67-.39-1.35-.57-2C379.46,177.35,379.65,178,379.85,178.7Z"/><path class="cls-9" d="M380.55,180.78c-.17-.47-.33-.94-.48-1.42C380.22,179.84,380.38,180.31,380.55,180.78Z"/><path class="cls-9" d="M381.4,183q-.3-.72-.57-1.44Q381.1,182.28,381.4,183Z"/><path class="cls-9" d="M383.44,187.35c-.2-.38-.4-.76-.59-1.15C383,186.59,383.24,187,383.44,187.35Z"/><path class="cls-9" d="M384.66,189.52c-.27-.45-.54-.91-.79-1.37C384.12,188.61,384.39,189.07,384.66,189.52Z"/><path class="cls-9" d="M424.66,213.91c-.56,0-1.11-.07-1.67-.12C423.55,213.84,424.1,213.88,424.66,213.91Z"/><path class="cls-9" d="M409.28,215.86a4,4,0,0,1-3.37,1.82h14.22v-4.23c.71.11,1.44.19,2.17.27a49.45,49.45,0,0,1-10.17-2.18Z"/><path class="cls-9" d="M393.14,115.6h-7.32v7.32A7.32,7.32,0,0,1,393.14,115.6Z"/><path class="cls-9" d="M385.82,136.63c-.21.32-.41.64-.61,1l.61-1Z"/><path class="cls-9" d="M382.47,185.42c-.29-.61-.57-1.22-.83-1.84C381.9,184.2,382.18,184.81,382.47,185.42Z"/><path class="cls-9" d="M415.12,115.6h0Z"/><path class="cls-9" d="M385.21,190.43c.2.32.4.65.61,1h0Z"/><path class="cls-9" d="M427.66,214c-.78,0-1.54,0-2.31-.06C426.12,214,426.88,214,427.66,214Z"/><path class="cls-9" d="M423.81,114.17l.9-.06Z"/><path class="cls-9" d="M417.92,115c.27-.06.54-.1.81-.15C418.46,114.87,418.19,114.91,417.92,115Z"/><path class="cls-9" d="M420.78,114.49l1-.12Z"/><path class="cls-9" d="M402.53,215.86l-3.72-5.65h-5.67a7.32,7.32,0,0,1-7.32-7.32v14.79h20.09A4,4,0,0,1,402.53,215.86Z"/><path class="cls-1" d="M413,157.71l-3.72,5.65a4,4,0,0,1-6.75,0l-3.72-5.65h-5.67a7.32,7.32,0,0,1-7.32-7.32V136.64l-.61,1-.55.91c-.27.46-.54.91-.79,1.37l-.43.8-.59,1.15c-.13.26-.26.52-.38.79-.29.6-.57,1.21-.83,1.83-.09.19-.16.39-.24.59-.2.47-.39.95-.57,1.43l-.28.78c-.17.47-.33.94-.48,1.42-.07.22-.15.44-.22.67-.2.67-.39,1.34-.57,2-.06.2-.1.4-.15.6-.13.53-.25,1.06-.37,1.59l-.15.73c-.11.59-.22,1.18-.32,1.78,0,.14-.05.28-.07.42-.11.73-.2,1.47-.28,2.21l-.06.62c-.05.58-.09,1.15-.13,1.73l0,.67c0,.76-.06,1.53-.06,2.3s0,1.54.06,2.31l0,.67c0,.57.08,1.15.13,1.72l.06.62c.08.74.17,1.48.28,2.21,0,.14,0,.28.07.43.1.59.21,1.19.32,1.78l.15.72c.12.53.24,1.06.37,1.59.05.2.09.4.15.61.18.68.37,1.36.57,2,.07.22.15.44.22.66.15.48.31.95.48,1.42l.28.78q.27.72.57,1.44c.08.19.15.39.24.58.26.62.54,1.23.83,1.84.12.26.25.52.38.78s.39.77.59,1.15l.43.8c.25.46.52.92.79,1.37s.36.61.55.91l.61.95v-16a7.32,7.32,0,0,1,7.32-7.32h84.34c.11-1.35.18-2.71.18-4.09a50.37,50.37,0,0,0-.41-6.3H413Z"/><path class="cls-1" d="M413,210.21l-.87,1.33a49.45,49.45,0,0,0,10.17,2.18l.69.07c.56.05,1.11.09,1.67.12l.69,0c.77,0,1.53.06,2.31.06a49.72,49.72,0,0,0,19.13-3.8H413Z"/><path class="cls-1" d="M417.85,115.6h22.36A50,50,0,0,0,427.66,114c-1,0-2,0-3,.1l-.9.06c-.69.06-1.37.12-2.05.2l-1,.12c-.68.1-1.37.21-2,.33-.27.05-.54.09-.81.15-.94.18-1.88.39-2.8.63h2.73Z"/><path class="cls-5" d="M414.63,207.18h-2.55a2,2,0,0,0-1.68.9l-1.51,2.28-2.22,3.33a.8.8,0,0,1-1.34,0l-3.73-5.61a2,2,0,0,0-1.68-.9H394a5.13,5.13,0,0,1-5.13-5.13V176.26a5.13,5.13,0,0,1,5.13-5.13h20.65a3.22,3.22,0,0,1,3.22-3H393.14a7.32,7.32,0,0,0-7.32,7.32v16h0v11.5a7.32,7.32,0,0,0,7.32,7.32h5.67l3.72,5.65a4,4,0,0,0,6.75,0l2.85-4.32.87-1.33h4.85A3.22,3.22,0,0,1,414.63,207.18Z"/><path class="cls-7" d="M414.63,207.18a3.22,3.22,0,0,0,3.22,3h28.94a49.91,49.91,0,0,0,6.08-3Z"/><path class="cls-7" d="M414.63,171.13h62.51c.15-1,.25-2,.34-3H417.85A3.22,3.22,0,0,0,414.63,171.13Z"/><path class="cls-6" d="M414.62,207V171.33c0-.06,0-.13,0-.2H394a5.13,5.13,0,0,0-5.13,5.13v25.79a5.13,5.13,0,0,0,5.13,5.13h5.94a2,2,0,0,1,1.68.9l3.73,5.61a.8.8,0,0,0,1.34,0l2.22-3.33,1.51-2.28a2,2,0,0,1,1.68-.9h2.55C414.63,207.12,414.62,207.05,414.62,207Zm-6.21-15.44a3,3,0,0,1-4.29,4.29l-2.38-2.38-2.38,2.38a3,3,0,0,1-4.3,0h0a3,3,0,0,1,0-4.29l2.39-2.38-2.39-2.38a3,3,0,0,1,4.3-4.3l2.38,2.39.44-.44,1.94-2a3,3,0,0,1,4.29,4.3l-1.94,1.94-.44.44Z"/><path class="cls-5" d="M414.62,207c0,.07,0,.14,0,.2h38.24a50.24,50.24,0,0,0,9.41-7.11H423.52a1.66,1.66,0,1,1,0-3.32h41.91c.8-.92,1.58-1.87,2.31-2.85H423.52a1.66,1.66,0,1,1,0-3.32H470c.58-.93,1.14-1.87,1.67-2.85H423.52a1.66,1.66,0,1,1,0-3.32H473.3a49,49,0,0,0,3.84-13.28H414.63c0,.07,0,.14,0,.2Zm8.9-28.73h13a1.66,1.66,0,1,1,0,3.32h-13a1.66,1.66,0,1,1,0-3.32Z"/><path class="cls-20" d="M423.52,181.57h13a1.66,1.66,0,1,0,0-3.32h-13a1.66,1.66,0,1,0,0,3.32Z"/><path class="cls-7" d="M421.86,186.07a1.66,1.66,0,0,0,1.66,1.66h48.16c.58-1.08,1.12-2.19,1.62-3.32H423.52A1.67,1.67,0,0,0,421.86,186.07Z"/><path class="cls-7" d="M421.86,192.24a1.66,1.66,0,0,0,1.66,1.66h44.22c.8-1.07,1.55-2.18,2.27-3.32H423.52A1.67,1.67,0,0,0,421.86,192.24Z"/><path class="cls-7" d="M421.86,198.41a1.66,1.66,0,0,0,1.66,1.66h38.76q1.65-1.59,3.15-3.32H423.52A1.66,1.66,0,0,0,421.86,198.41Z"/><path class="cls-3" d="M395.06,195.83h0a3,3,0,0,0,4.3,0l2.38-2.38,2.38,2.38a3,3,0,0,0,4.29-4.29L406,189.16l.44-.44a3,3,0,0,1-4.29-4.29l-.44.44-2.38-2.39a3,3,0,0,0-4.3,4.3l2.39,2.38-2.39,2.38A3,3,0,0,0,395.06,195.83Z"/><path class="cls-2" d="M408.41,182.48a3,3,0,0,0-4.29,0l-1.94,2a3,3,0,0,0,4.29,4.29l1.94-1.94A3,3,0,0,0,408.41,182.48Z"/><path class="cls-13" d="M414.63,154.68h-2.55a2,2,0,0,0-1.68.9l-3.73,5.6a.8.8,0,0,1-1.34,0l-3.73-5.6a2,2,0,0,0-1.68-.9H394a5.13,5.13,0,0,1-5.13-5.13V123.76a5.13,5.13,0,0,1,5.13-5.13h20.65a3.22,3.22,0,0,1,3.22-3H393.14a7.32,7.32,0,0,0-7.32,7.32v13.71h0v13.75a7.32,7.32,0,0,0,7.32,7.32h5.67l3.72,5.65a4,4,0,0,0,6.75,0l3.72-5.65h4.85A3.22,3.22,0,0,1,414.63,154.68Z"/><path class="cls-17" d="M414.63,154.68a3.22,3.22,0,0,0,3.22,3h59.4c-.13-1-.29-2-.47-3Z"/><path class="cls-17" d="M414.63,118.63h34a49.73,49.73,0,0,0-8.43-3H417.85A3.22,3.22,0,0,0,414.63,118.63Z"/><path class="cls-12" d="M414.62,154.48V118.83c0-.07,0-.13,0-.2H394a5.13,5.13,0,0,0-5.13,5.13v25.79a5.13,5.13,0,0,0,5.13,5.13h5.94a2,2,0,0,1,1.68.9l3.73,5.6a.8.8,0,0,0,1.34,0l3.73-5.6a2,2,0,0,1,1.68-.9h2.55C414.63,154.61,414.62,154.55,414.62,154.48Zm-4.79-19.24-2.18,2.18-2.75,2.76,0,0-2.14,2.13a3,3,0,0,1-4.27,0l-2.14-2.13-2.67-2.68a3,3,0,1,1,4.27-4.27l2.67,2.67,0,0,2.76-2.75,2.18-2.18a3,3,0,0,1,4.27,4.27Z"/><path class="cls-13" d="M414.62,118.83v35.65c0,.07,0,.13,0,.2h62.15a50.93,50.93,0,0,0-1.9-7.11H423.52a1.66,1.66,0,1,1,0-3.32h50.07c-.41-1-.87-1.92-1.34-2.85H423.52a1.66,1.66,0,1,1,0-3.32h46.9c-.6-1-1.23-1.92-1.89-2.85h-45a1.66,1.66,0,1,1,0-3.32H466a50,50,0,0,0-17.34-13.28h-34C414.63,118.7,414.62,118.76,414.62,118.83Zm8.9,6.91h13a1.66,1.66,0,1,1,0,3.32h-13a1.66,1.66,0,1,1,0-3.32Z"/><path class="cls-18" d="M423.52,129.06h13a1.66,1.66,0,1,0,0-3.32h-13a1.66,1.66,0,1,0,0,3.32Z"/><path class="cls-17" d="M421.86,133.57a1.66,1.66,0,0,0,1.66,1.66h45c-.8-1.14-1.65-2.25-2.55-3.32H423.52A1.66,1.66,0,0,0,421.86,133.57Z"/><path class="cls-17" d="M421.86,139.74a1.66,1.66,0,0,0,1.66,1.66h48.73c-.58-1.13-1.18-2.24-1.83-3.32h-46.9A1.66,1.66,0,0,0,421.86,139.74Z"/><path class="cls-17" d="M421.86,145.91a1.67,1.67,0,0,0,1.66,1.66h51.36c-.4-1.13-.82-2.24-1.29-3.32H423.52A1.66,1.66,0,0,0,421.86,145.91Z"/><path class="cls-3" d="M400.62,140.18a3,3,0,0,1,0-4.28l0,0-2.67-2.67a3,3,0,1,0-4.27,4.27l2.67,2.68,2.14,2.13a3,3,0,0,0,4.27,0l2.14-2.13,0,0A3,3,0,0,1,400.62,140.18Z"/><path class="cls-2" d="M409.83,131a3,3,0,0,0-4.27,0l-2.18,2.18-2.76,2.75a3,3,0,1,0,4.28,4.28l2.75-2.76,2.18-2.18A3,3,0,0,0,409.83,131Z"/><path class="cls-1" d="M475.81,283.94a4.23,4.23,0,0,1-.25.58,3.34,3.34,0,0,1-4.53,1.26L457.23,278l-.26-1.88a3,3,0,0,1,1.78-3.17l.75-.32a1.29,1.29,0,0,0,.65-.61l-4-2.25a3.31,3.31,0,0,1,0-5.8,50,50,0,1,0-9.6,91.37,8,8,0,0,1-1.87-10.15l23.14-40.07a8,8,0,0,1,10.87-2.91l2.87,1.66A49.71,49.71,0,0,0,475.81,283.94Z"/><path class="cls-21" d="M481.75,307.59c0-1.25-.05-2.48-.14-3.71l-2.87-1.66a8,8,0,0,0-10.87,2.91L444.73,345.2a8,8,0,0,0,1.87,10.15A50,50,0,0,0,481.75,307.59Z"/><path class="cls-22" d="M390.37,305.42h35.89a4.63,4.63,0,0,1,4.63,4.63v18.26a4.62,4.62,0,0,1-4.63,4.62H403.54l-3,4.48a1.78,1.78,0,0,1-3,0l-3-4.48h-4.23a4.63,4.63,0,0,1-4.63-4.62V310.05A4.64,4.64,0,0,1,390.37,305.42Z"/><path class="cls-23" d="M400.7,328.31V310.05a4.63,4.63,0,0,1,4.63-4.63h-15a4.64,4.64,0,0,0-4.63,4.63v18.26a4.63,4.63,0,0,0,4.63,4.62h4.23l3,4.48a1.78,1.78,0,0,0,3,0l3-4.48h1.79A4.62,4.62,0,0,1,400.7,328.31Z"/><rect class="cls-24" x="392.33" y="311.52" width="16.75" height="3.43" rx="1.71"/><rect class="cls-24" x="392.33" y="317.77" width="31.97" height="3.43" rx="1.71"/><rect class="cls-24" x="392.33" y="324.02" width="31.97" height="3.43" rx="1.71"/><path class="cls-25" d="M426.26,268H390.37a4.63,4.63,0,0,0-4.63,4.62v18.26a4.64,4.64,0,0,0,4.63,4.63H413.1l3,4.47a1.78,1.78,0,0,0,3,0l3-4.47h4.23a4.63,4.63,0,0,0,4.63-4.63V272.6A4.62,4.62,0,0,0,426.26,268Z"/><path class="cls-26" d="M400.7,290.86V272.6a4.62,4.62,0,0,1,4.63-4.62h-15a4.63,4.63,0,0,0-4.63,4.62v18.26a4.64,4.64,0,0,0,4.63,4.63h15A4.63,4.63,0,0,1,400.7,290.86Z"/><rect class="cls-27" x="407.56" y="274.08" width="16.75" height="3.43" rx="1.71"/><rect class="cls-27" x="392.33" y="280.32" width="31.97" height="3.43" rx="1.71"/><rect class="cls-27" x="392.33" y="286.57" width="31.97" height="3.43" rx="1.71"/><path class="cls-28" d="M452.81,275.52l-20.94,37.16-1.49,2.66a3.91,3.91,0,0,0,2.2.22l2.83-.53a1.33,1.33,0,0,1,.88.15h0l20.88-37.05,9.23,5.2-20.87,37.06h0a1.32,1.32,0,0,1,.57.68l.94,2.48a3.92,3.92,0,0,0,1.48,1.87l1.43-2.54,20.94-37.17Z"/><path class="cls-14" d="M457.23,278l-20.94,37.16h0a1.32,1.32,0,0,1,.6.67l1.05,2.61a3.61,3.61,0,0,0,3.93,2.21l2.77-.45a1.29,1.29,0,0,1,.89.16h0l20.94-37.17Z"/><path class="cls-10" d="M420.32,355.69l.06-.19-.54-.33a11.41,11.41,0,0,0-4.69-1.44l-.61,6.75a2.19,2.19,0,0,0,3.51,2l3.85-2.83A3.32,3.32,0,0,1,420.32,355.69Z"/><path class="cls-29" d="M420.38,355.5l3.41-10.6a3.3,3.3,0,0,1,2.64-2.26,3.55,3.55,0,0,1-1.23-1.57l-1.05-2.61a1.36,1.36,0,0,0-.6-.67,1.33,1.33,0,0,0-.88-.14l-2.83.53a3.91,3.91,0,0,1-2.2-.23l-.66,1.17a5.77,5.77,0,0,0-.72,2.32l-1,11.07-.11,1.22a11.41,11.41,0,0,1,4.69,1.44Z"/><path class="cls-30" d="M422.67,337.65a1.33,1.33,0,0,1,.88.14h0l12.74-22.61a1.33,1.33,0,0,0-.88-.15l-2.83.53a3.91,3.91,0,0,1-2.2-.22l-11.25,20L417.64,338a3.91,3.91,0,0,0,2.2.23Z"/><path class="cls-31" d="M420.38,355.5l-.06.19a3.32,3.32,0,0,0,1.58,3.94l1.61-1.19A11.58,11.58,0,0,0,420.38,355.5Z"/><path class="cls-32" d="M434.3,346.15l-.58-1.55-.36-.93a1.32,1.32,0,0,0-.57-.68,1.35,1.35,0,0,0-.89-.16l-2.45.4-.32,0a3.56,3.56,0,0,1-2.7-.64,3.3,3.3,0,0,0-2.64,2.26l-3.41,10.6a11.58,11.58,0,0,1,3.13,2.94l1-.72,8.95-6.6a5.63,5.63,0,0,0,1.61-1.82l.73-1.27A4,4,0,0,1,434.3,346.15Z"/><path class="cls-30" d="M447,323.54l-.94-2.48a1.32,1.32,0,0,0-.57-.68L432.79,343h0a1.32,1.32,0,0,1,.57.68l.36.93.58,1.55a4,4,0,0,0,1.48,1.88l1.31-2.34.12-.21,11.31-20.07A3.92,3.92,0,0,1,447,323.54Z"/><path class="cls-28" d="M444.64,320.22l-2.77.45a3.61,3.61,0,0,1-3.93-2.21l-1.05-2.61a1.32,1.32,0,0,0-.6-.67l-12.74,22.61h0a1.36,1.36,0,0,1,.6.67l1.05,2.61a3.61,3.61,0,0,0,3.93,2.21l.32,0,2.45-.4a1.35,1.35,0,0,1,.89.16h0l12.74-22.61A1.29,1.29,0,0,0,444.64,320.22Z"/><rect class="cls-29" x="450.99" y="283.9" width="16.38" height="2.91" rx="1.45" transform="translate(199.17 -188.64) rotate(29.4)"/><path class="cls-4" d="M458.75,273l.75-.32a1.25,1.25,0,0,0,.65-.61l-4-2.25a3.31,3.31,0,0,0-4.52,1.26h0a3.33,3.33,0,0,0,1.26,4.53l4.33,2.44-.26-1.88A3,3,0,0,1,458.75,273Z"/><path class="cls-3" d="M454.9,265.25a3.33,3.33,0,0,0,1.26,4.53l4,2.25a1.24,1.24,0,0,0,.12-.87l-.14-.7a3,3,0,0,1,1.29-3.1A50.05,50.05,0,0,0,456.2,264,3.3,3.3,0,0,0,454.9,265.25Z"/><path class="cls-3" d="M460.49,272.22l-.34-.19a1.29,1.29,0,0,1-.65.61l-.75.32a3,3,0,0,0-1.78,3.17l.26,1.88,13.8,7.77a3.34,3.34,0,0,0,4.53-1.26,4.23,4.23,0,0,0,.25-.58,50.73,50.73,0,0,0-2.9-4.73Z"/><path class="cls-2" d="M472.91,279.21a50.31,50.31,0,0,0-11.49-11.85,3,3,0,0,0-1.29,3.1l.14.7a1.24,1.24,0,0,1-.12.87l.34.19Z"/><path class="cls-17" d="M359.62,183a7.4,7.4,0,0,0-9.43-4.49l-48.84,17.3a7.34,7.34,0,0,0-3.89,3.2h0a7.39,7.39,0,0,0,8.82,10.72l48.84-17.3A7.39,7.39,0,0,0,359.62,183Z"/><path class="cls-17" d="M307.68,120.09a7.37,7.37,0,0,0-10.41.82l-33.64,39.4a7.38,7.38,0,1,0,11.23,9.59l33.64-39.4A7.38,7.38,0,0,0,307.68,120.09Z"/><path class="cls-17" d="M357.28,258.58A7.32,7.32,0,0,0,353,256L302,246.5a7.36,7.36,0,0,0-5,.82h0A7.38,7.38,0,0,0,299.3,261l50.93,9.52a7.38,7.38,0,0,0,7-12Z"/></g></g></svg>